<?xml version="1.0" encoding="iso-8859-1"?>
<!-- Generator: Adobe Illustrator 16.0.0, SVG Export Plug-In . SVG Version: 6.00 Build 0)  -->
<!DOCTYPE svg PUBLIC "-//W3C//DTD SVG 1.1//EN" "http://www.w3.org/Graphics/SVG/1.1/DTD/svg11.dtd">
<svg version="1.1" id="Capa_1" xmlns="http://www.w3.org/2000/svg" xmlns:xlink="http://www.w3.org/1999/xlink" x="0px" y="0px"
	 width="256.428px" height="256.428px" viewBox="0 0 256.428 256.428" style="enable-background:new 0 0 256.428 256.428;"
	 xml:space="preserve">
<g>
	<g id="_x31_63_17_">
		<g>
			<path d="M72.236,159.694v0.29h114.775v-0.355c14.416-2.447,24.374-16.468,25.146-30.76c-0.944-17.628-13.492-30.163-31.112-31.11
				c-0.341-0.021-0.665,0.015-1.001,0.005c0.392-1.736,0.65-3.493,0.752-5.278c-0.884-16.306-12.492-27.906-28.792-28.787
				c-9.567-0.518-17.539,4.37-22.658,11.509c-5.111-6.736-13.061-10.984-22.67-11.509C90.411,62.82,78.701,77.505,77.888,92.485
				c-0.096,1.93,0.033,3.78,0.328,5.57c-1.018-0.142-2.059-0.246-3.113-0.302c-17.587-0.952-30.237,14.924-31.11,31.11
				C43.097,145.41,57.089,157.582,72.236,159.694z"/>
			<polygon points="228.112,153.743 217.408,153.743 190.688,167.911 194.491,174.121 218.454,166.185 201.88,184.141 
				162.17,184.141 162.17,192.768 207.06,192.768 232.256,176.203 255.737,176.203 256.428,153.743 			"/>
			<polygon points="37.976,166.185 61.936,174.121 65.737,167.911 39.017,153.743 28.314,153.743 0,153.743 0.693,176.203 
				24.171,176.203 49.368,192.768 94.255,192.768 94.255,184.141 54.547,184.141 			"/>
		</g>
	</g>
</g>
<g>
</g>
<g>
</g>
<g>
</g>
<g>
</g>
<g>
</g>
<g>
</g>
<g>
</g>
<g>
</g>
<g>
</g>
<g>
</g>
<g>
</g>
<g>
</g>
<g>
</g>
<g>
</g>
<g>
</g>
</svg>
